<svg width="100" height="100" viewBox="0 0 100 100" fill="none" xmlns="http://www.w3.org/2000/svg">
<g clip-path="url(#clip0_61732_987)">
<path d="M66.139 95.9959C65.2926 98.3953 63.0249 100 60.4806 100H37.8646C35.328 100 33.0655 98.4049 32.2133 96.0157L14.0194 45.0079C13.3226 43.0543 14.771 41 16.845 41H33.5425C36.0676 41 38.3225 42.581 39.1832 44.955L48.1433 69.6692C48.4645 70.5553 49.7211 70.5456 50.0287 69.6547L72.6817 4.0419C73.5168 1.62301 75.7942 0 78.3532 0H95.7606C97.8303 0 99.2782 2.04617 98.5898 3.99794L66.139 95.9959Z" fill="#FBBF24"/>
<path d="M32.1466 19.4177C32.7672 21.3537 31.3229 23.3333 29.2898 23.3333H12.1605C9.5839 23.3333 7.29499 21.6883 6.47356 19.2462L1.33077 3.95642C0.676863 2.01234 2.12312 0 4.17422 0H21.5453C24.1535 0 26.4629 1.68494 27.259 4.16864L32.1466 19.4177Z" fill="#B26A1D"/>
</g>
<defs>
<clipPath id="clip0_61732_987">
<rect width="100" height="100" fill="white"/>
</clipPath>
</defs>
</svg>
